<svg version="1" xmlns="http://www.w3.org/2000/svg" width="50" height="50"><path fill="#010101" d="M28.109 29.658a19.104 19.104 0 0 0 14.355-4.312A15.973 15.973 0 0 0 44.963 8.1a11.95 11.95 0 0 0-3.92-4.899A14.706 14.706 0 0 0 35.017.898a44.821 44.821 0 0 0-7.447-.49H9.05V23.68H3.562v5.781H9.05v5.977H3.562v5.781H9.05v8.378h6.467v-8.133h20.088v-5.781H15.517v-6.026h12.592zM15.566 6.386h12.543a27.6 27.6 0 0 1 6.026.441 7.255 7.255 0 0 1 4.116 2.891 8.87 8.87 0 0 1 1.568 5.242 8.33 8.33 0 0 1-2.646 6.565 13.429 13.429 0 0 1-8.917 2.352H15.517V6.386h.049z"/></svg>